<?xml version="1.0" encoding="us-ascii" standalone="no"?><svg xmlns="http://www.w3.org/2000/svg" xmlns:xlink="http://www.w3.org/1999/xlink" contentStyleType="text/css" height="364px" preserveAspectRatio="none" style="width:638px;height:364px;background:#FFFFFF;" version="1.1" viewBox="0 0 638 364" width="638px" zoomAndPan="magnify"><defs/><g><!--class User--><g id="elem_User"><rect codeLine="3" fill="#F1F1F1" height="136.0469" id="User" rx="2.5" ry="2.5" style="stroke:#181818;stroke-width:0.5;" width="114" x="279.5" y="7"/><ellipse cx="318.35" cy="23" fill="#ADD1B2" rx="11" ry="11" style="stroke:#181818;stroke-width:1.0;"/><path d="M321.1156,18.875 Q321.2719,18.6563 321.4594,18.5469 Q321.6469,18.4375 321.8656,18.4375 Q322.2406,18.4375 322.475,18.7031 Q322.7094,18.9531 322.7094,19.5625 L322.7094,21.0156 Q322.7094,21.625 322.475,21.8906 Q322.2406,22.1563 321.8656,22.1563 Q321.5219,22.1563 321.3188,21.9531 Q321.1156,21.7656 321.0063,21.25 Q320.9594,20.8906 320.7719,20.7031 Q320.4438,20.3281 319.8344,20.1094 Q319.225,19.8906 318.6,19.8906 Q317.8344,19.8906 317.1938,20.2188 Q316.5688,20.5469 316.0688,21.2969 Q315.5844,22.0469 315.5844,23.0781 L315.5844,24.1719 Q315.5844,25.4063 316.475,26.2344 Q317.3656,27.0469 318.9594,27.0469 Q319.8969,27.0469 320.5531,26.7969 Q320.9438,26.6406 321.3656,26.2031 Q321.6313,25.9375 321.7719,25.8594 Q321.9281,25.7813 322.1313,25.7813 Q322.4594,25.7813 322.7094,26.0469 Q322.975,26.2969 322.975,26.6406 Q322.975,26.9844 322.6313,27.3906 Q322.1313,27.9688 321.3344,28.2969 Q320.2563,28.75 318.9594,28.75 Q317.4438,28.75 316.2406,28.125 Q315.2563,27.625 314.5688,26.5625 Q313.8813,25.4844 313.8813,24.2031 L313.8813,23.0469 Q313.8813,21.7188 314.4906,20.5781 Q315.1156,19.4219 316.2094,18.8125 Q317.3031,18.1875 318.5375,18.1875 Q319.2719,18.1875 319.9125,18.3594 Q320.5688,18.5156 321.1156,18.875 Z " fill="#000000"/><text fill="#000000" font-family="sans-serif" font-size="14" lengthAdjust="spacing" textLength="29" x="337.65" y="28.7285">User</text><line style="stroke:#181818;stroke-width:0.5;" x1="280.5" x2="392.5" y1="39" y2="39"/><ellipse cx="290.5" cy="53.3047" fill="none" rx="3" ry="3" style="stroke:#038048;stroke-width:1.0;"/><text fill="#000000" font-family="sans-serif" font-size="14" lengthAdjust="spacing" textLength="32" x="299.5" y="57.5332">int ID</text><ellipse cx="290.5" cy="70.9141" fill="none" rx="3" ry="3" style="stroke:#038048;stroke-width:1.0;"/><text fill="#000000" font-family="sans-serif" font-size="14" lengthAdjust="spacing" textLength="88" x="299.5" y="75.1426">string Nombre</text><ellipse cx="290.5" cy="88.5234" fill="none" rx="3" ry="3" style="stroke:#038048;stroke-width:1.0;"/><text fill="#000000" font-family="sans-serif" font-size="14" lengthAdjust="spacing" textLength="83" x="299.5" y="92.752">string Correo</text><ellipse cx="290.5" cy="106.1328" fill="none" rx="3" ry="3" style="stroke:#038048;stroke-width:1.0;"/><text fill="#000000" font-family="sans-serif" font-size="14" lengthAdjust="spacing" textLength="69" x="299.5" y="110.3613">bool Activo</text><ellipse cx="290.5" cy="123.7422" fill="none" rx="3" ry="3" style="stroke:#038048;stroke-width:1.0;"/><text fill="#000000" font-family="sans-serif" font-size="14" lengthAdjust="spacing" textLength="77" x="299.5" y="127.9707">int Progreso</text><line style="stroke:#181818;stroke-width:0.5;" x1="280.5" x2="392.5" y1="135.0469" y2="135.0469"/></g><!--class Achievement--><g id="elem_Achievement"><rect codeLine="11" fill="#F1F1F1" height="118.4375" id="Achievement" rx="2.5" ry="2.5" style="stroke:#181818;stroke-width:0.5;" width="149" x="7" y="230"/><ellipse cx="38.2" cy="246" fill="#ADD1B2" rx="11" ry="11" style="stroke:#181818;stroke-width:1.0;"/><path d="M40.9656,241.875 Q41.1219,241.6563 41.3094,241.5469 Q41.4969,241.4375 41.7156,241.4375 Q42.0906,241.4375 42.325,241.7031 Q42.5594,241.9531 42.5594,242.5625 L42.5594,244.0156 Q42.5594,244.625 42.325,244.8906 Q42.0906,245.1563 41.7156,245.1563 Q41.3719,245.1563 41.1688,244.9531 Q40.9656,244.7656 40.8563,244.25 Q40.8094,243.8906 40.6219,243.7031 Q40.2938,243.3281 39.6844,243.1094 Q39.075,242.8906 38.45,242.8906 Q37.6844,242.8906 37.0438,243.2188 Q36.4188,243.5469 35.9188,244.2969 Q35.4344,245.0469 35.4344,246.0781 L35.4344,247.1719 Q35.4344,248.4063 36.325,249.2344 Q37.2156,250.0469 38.8094,250.0469 Q39.7469,250.0469 40.4031,249.7969 Q40.7938,249.6406 41.2156,249.2031 Q41.4813,248.9375 41.6219,248.8594 Q41.7781,248.7813 41.9813,248.7813 Q42.3094,248.7813 42.5594,249.0469 Q42.825,249.2969 42.825,249.6406 Q42.825,249.9844 42.4813,250.3906 Q41.9813,250.9688 41.1844,251.2969 Q40.1063,251.75 38.8094,251.75 Q37.2938,251.75 36.0906,251.125 Q35.1063,250.625 34.4188,249.5625 Q33.7313,248.4844 33.7313,247.2031 L33.7313,246.0469 Q33.7313,244.7188 34.3406,243.5781 Q34.9656,242.4219 36.0594,241.8125 Q37.1531,241.1875 38.3875,241.1875 Q39.1219,241.1875 39.7625,241.3594 Q40.4188,241.5156 40.9656,241.875 Z " fill="#000000"/><text fill="#000000" font-family="sans-serif" font-size="14" lengthAdjust="spacing" textLength="81" x="55.8" y="251.7285">Achievement</text><line style="stroke:#181818;stroke-width:0.5;" x1="8" x2="155" y1="262" y2="262"/><ellipse cx="18" cy="276.3047" fill="none" rx="3" ry="3" style="stroke:#038048;stroke-width:1.0;"/><text fill="#000000" font-family="sans-serif" font-size="14" lengthAdjust="spacing" textLength="32" x="27" y="280.5332">int ID</text><ellipse cx="18" cy="293.9141" fill="none" rx="3" ry="3" style="stroke:#038048;stroke-width:1.0;"/><text fill="#000000" font-family="sans-serif" font-size="14" lengthAdjust="spacing" textLength="88" x="27" y="298.1426">string Nombre</text><ellipse cx="18" cy="311.5234" fill="none" rx="3" ry="3" style="stroke:#038048;stroke-width:1.0;"/><text fill="#000000" font-family="sans-serif" font-size="14" lengthAdjust="spacing" textLength="113" x="27" y="315.752">string Descripcion</text><ellipse cx="18" cy="329.1328" fill="none" rx="3" ry="3" style="stroke:#038048;stroke-width:1.0;"/><text fill="#000000" font-family="sans-serif" font-size="14" lengthAdjust="spacing" textLength="123" x="27" y="333.3613">bool Desbloqueado</text><line style="stroke:#181818;stroke-width:0.5;" x1="8" x2="155" y1="340.4375" y2="340.4375"/></g><!--class Editor--><g id="elem_Editor"><rect codeLine="18" fill="#F1F1F1" height="118.4375" id="Editor" rx="2.5" ry="2.5" style="stroke:#181818;stroke-width:0.5;" width="124" x="191.5" y="230"/><ellipse cx="231.25" cy="246" fill="#ADD1B2" rx="11" ry="11" style="stroke:#181818;stroke-width:1.0;"/><path d="M234.0156,241.875 Q234.1719,241.6563 234.3594,241.5469 Q234.5469,241.4375 234.7656,241.4375 Q235.1406,241.4375 235.375,241.7031 Q235.6094,241.9531 235.6094,242.5625 L235.6094,244.0156 Q235.6094,244.625 235.375,244.8906 Q235.1406,245.1563 234.7656,245.1563 Q234.4219,245.1563 234.2188,244.9531 Q234.0156,244.7656 233.9063,244.25 Q233.8594,243.8906 233.6719,243.7031 Q233.3438,243.3281 232.7344,243.1094 Q232.125,242.8906 231.5,242.8906 Q230.7344,242.8906 230.0938,243.2188 Q229.4688,243.5469 228.9688,244.2969 Q228.4844,245.0469 228.4844,246.0781 L228.4844,247.1719 Q228.4844,248.4063 229.375,249.2344 Q230.2656,250.0469 231.8594,250.0469 Q232.7969,250.0469 233.4531,249.7969 Q233.8438,249.6406 234.2656,249.2031 Q234.5313,248.9375 234.6719,248.8594 Q234.8281,248.7813 235.0313,248.7813 Q235.3594,248.7813 235.6094,249.0469 Q235.875,249.2969 235.875,249.6406 Q235.875,249.9844 235.5313,250.3906 Q235.0313,250.9688 234.2344,251.2969 Q233.1563,251.75 231.8594,251.75 Q230.3438,251.75 229.1406,251.125 Q228.1563,250.625 227.4688,249.5625 Q226.7813,248.4844 226.7813,247.2031 L226.7813,246.0469 Q226.7813,244.7188 227.3906,243.5781 Q228.0156,242.4219 229.1094,241.8125 Q230.2031,241.1875 231.4375,241.1875 Q232.1719,241.1875 232.8125,241.3594 Q233.4688,241.5156 234.0156,241.875 Z " fill="#000000"/><text fill="#000000" font-family="sans-serif" font-size="14" lengthAdjust="spacing" textLength="37" x="250.75" y="251.7285">Editor</text><line style="stroke:#181818;stroke-width:0.5;" x1="192.5" x2="314.5" y1="262" y2="262"/><ellipse cx="202.5" cy="276.3047" fill="none" rx="3" ry="3" style="stroke:#038048;stroke-width:1.0;"/><text fill="#000000" font-family="sans-serif" font-size="14" lengthAdjust="spacing" textLength="32" x="211.5" y="280.5332">int ID</text><ellipse cx="202.5" cy="293.9141" fill="none" rx="3" ry="3" style="stroke:#038048;stroke-width:1.0;"/><text fill="#000000" font-family="sans-serif" font-size="14" lengthAdjust="spacing" textLength="80" x="211.5" y="298.1426">int UsuarioID</text><ellipse cx="202.5" cy="311.5234" fill="none" rx="3" ry="3" style="stroke:#038048;stroke-width:1.0;"/><text fill="#000000" font-family="sans-serif" font-size="14" lengthAdjust="spacing" textLength="84" x="211.5" y="315.752">string Codigo</text><ellipse cx="202.5" cy="329.1328" fill="none" rx="3" ry="3" style="stroke:#038048;stroke-width:1.0;"/><text fill="#000000" font-family="sans-serif" font-size="14" lengthAdjust="spacing" textLength="98" x="211.5" y="333.3613">string Lenguaje</text><line style="stroke:#181818;stroke-width:0.5;" x1="192.5" x2="314.5" y1="340.4375" y2="340.4375"/></g><!--class Proyecto--><g id="elem_Proyecto"><rect codeLine="25" fill="#F1F1F1" height="136.0469" id="Proyecto" rx="2.5" ry="2.5" style="stroke:#181818;stroke-width:0.5;" width="139" x="351" y="221"/><ellipse cx="388.95" cy="237" fill="#ADD1B2" rx="11" ry="11" style="stroke:#181818;stroke-width:1.0;"/><path d="M391.7156,232.875 Q391.8719,232.6563 392.0594,232.5469 Q392.2469,232.4375 392.4656,232.4375 Q392.8406,232.4375 393.075,232.7031 Q393.3094,232.9531 393.3094,233.5625 L393.3094,235.0156 Q393.3094,235.625 393.075,235.8906 Q392.8406,236.1563 392.4656,236.1563 Q392.1219,236.1563 391.9188,235.9531 Q391.7156,235.7656 391.6063,235.25 Q391.5594,234.8906 391.3719,234.7031 Q391.0438,234.3281 390.4344,234.1094 Q389.825,233.8906 389.2,233.8906 Q388.4344,233.8906 387.7938,234.2188 Q387.1688,234.5469 386.6688,235.2969 Q386.1844,236.0469 386.1844,237.0781 L386.1844,238.1719 Q386.1844,239.4063 387.075,240.2344 Q387.9656,241.0469 389.5594,241.0469 Q390.4969,241.0469 391.1531,240.7969 Q391.5438,240.6406 391.9656,240.2031 Q392.2313,239.9375 392.3719,239.8594 Q392.5281,239.7813 392.7313,239.7813 Q393.0594,239.7813 393.3094,240.0469 Q393.575,240.2969 393.575,240.6406 Q393.575,240.9844 393.2313,241.3906 Q392.7313,241.9688 391.9344,242.2969 Q390.8563,242.75 389.5594,242.75 Q388.0438,242.75 386.8406,242.125 Q385.8563,241.625 385.1688,240.5625 Q384.4813,239.4844 384.4813,238.2031 L384.4813,237.0469 Q384.4813,235.7188 385.0906,234.5781 Q385.7156,233.4219 386.8094,232.8125 Q387.9031,232.1875 389.1375,232.1875 Q389.8719,232.1875 390.5125,232.3594 Q391.1688,232.5156 391.7156,232.875 Z " fill="#000000"/><text fill="#000000" font-family="sans-serif" font-size="14" lengthAdjust="spacing" textLength="56" x="408.05" y="242.7285">Proyecto</text><line style="stroke:#181818;stroke-width:0.5;" x1="352" x2="489" y1="253" y2="253"/><ellipse cx="362" cy="267.3047" fill="none" rx="3" ry="3" style="stroke:#038048;stroke-width:1.0;"/><text fill="#000000" font-family="sans-serif" font-size="14" lengthAdjust="spacing" textLength="32" x="371" y="271.5332">int ID</text><ellipse cx="362" cy="284.9141" fill="none" rx="3" ry="3" style="stroke:#038048;stroke-width:1.0;"/><text fill="#000000" font-family="sans-serif" font-size="14" lengthAdjust="spacing" textLength="80" x="371" y="289.1426">int UsuarioID</text><ellipse cx="362" cy="302.5234" fill="none" rx="3" ry="3" style="stroke:#038048;stroke-width:1.0;"/><text fill="#000000" font-family="sans-serif" font-size="14" lengthAdjust="spacing" textLength="74" x="371" y="306.752">string Titulo</text><ellipse cx="362" cy="320.1328" fill="none" rx="3" ry="3" style="stroke:#038048;stroke-width:1.0;"/><text fill="#000000" font-family="sans-serif" font-size="14" lengthAdjust="spacing" textLength="113" x="371" y="324.3613">string Descripcion</text><ellipse cx="362" cy="337.7422" fill="none" rx="3" ry="3" style="stroke:#038048;stroke-width:1.0;"/><text fill="#000000" font-family="sans-serif" font-size="14" lengthAdjust="spacing" textLength="66" x="371" y="341.9707">string URL</text><line style="stroke:#181818;stroke-width:0.5;" x1="352" x2="489" y1="349.0469" y2="349.0469"/></g><!--class Progreso--><g id="elem_Progreso"><rect codeLine="33" fill="#F1F1F1" height="118.4375" id="Progreso" rx="2.5" ry="2.5" style="stroke:#181818;stroke-width:0.5;" width="106" x="525.5" y="230"/><ellipse cx="547.7" cy="246" fill="#ADD1B2" rx="11" ry="11" style="stroke:#181818;stroke-width:1.0;"/><path d="M550.4656,241.875 Q550.6219,241.6563 550.8094,241.5469 Q550.9969,241.4375 551.2156,241.4375 Q551.5906,241.4375 551.825,241.7031 Q552.0594,241.9531 552.0594,242.5625 L552.0594,244.0156 Q552.0594,244.625 551.825,244.8906 Q551.5906,245.1563 551.2156,245.1563 Q550.8719,245.1563 550.6688,244.9531 Q550.4656,244.7656 550.3563,244.25 Q550.3094,243.8906 550.1219,243.7031 Q549.7938,243.3281 549.1844,243.1094 Q548.575,242.8906 547.95,242.8906 Q547.1844,242.8906 546.5438,243.2188 Q545.9188,243.5469 545.4188,244.2969 Q544.9344,245.0469 544.9344,246.0781 L544.9344,247.1719 Q544.9344,248.4063 545.825,249.2344 Q546.7156,250.0469 548.3094,250.0469 Q549.2469,250.0469 549.9031,249.7969 Q550.2938,249.6406 550.7156,249.2031 Q550.9813,248.9375 551.1219,248.8594 Q551.2781,248.7813 551.4813,248.7813 Q551.8094,248.7813 552.0594,249.0469 Q552.325,249.2969 552.325,249.6406 Q552.325,249.9844 551.9813,250.3906 Q551.4813,250.9688 550.6844,251.2969 Q549.6063,251.75 548.3094,251.75 Q546.7938,251.75 545.5906,251.125 Q544.6063,250.625 543.9188,249.5625 Q543.2313,248.4844 543.2313,247.2031 L543.2313,246.0469 Q543.2313,244.7188 543.8406,243.5781 Q544.4656,242.4219 545.5594,241.8125 Q546.6531,241.1875 547.8875,241.1875 Q548.6219,241.1875 549.2625,241.3594 Q549.9188,241.5156 550.4656,241.875 Z " fill="#000000"/><text fill="#000000" font-family="sans-serif" font-size="14" lengthAdjust="spacing" textLength="58" x="563.3" y="251.7285">Progreso</text><line style="stroke:#181818;stroke-width:0.5;" x1="526.5" x2="630.5" y1="262" y2="262"/><ellipse cx="536.5" cy="276.3047" fill="none" rx="3" ry="3" style="stroke:#038048;stroke-width:1.0;"/><text fill="#000000" font-family="sans-serif" font-size="14" lengthAdjust="spacing" textLength="32" x="545.5" y="280.5332">int ID</text><ellipse cx="536.5" cy="293.9141" fill="none" rx="3" ry="3" style="stroke:#038048;stroke-width:1.0;"/><text fill="#000000" font-family="sans-serif" font-size="14" lengthAdjust="spacing" textLength="80" x="545.5" y="298.1426">int UsuarioID</text><ellipse cx="536.5" cy="311.5234" fill="none" rx="3" ry="3" style="stroke:#038048;stroke-width:1.0;"/><text fill="#000000" font-family="sans-serif" font-size="14" lengthAdjust="spacing" textLength="49" x="545.5" y="315.752">int Nivel</text><ellipse cx="536.5" cy="329.1328" fill="none" rx="3" ry="3" style="stroke:#038048;stroke-width:1.0;"/><text fill="#000000" font-family="sans-serif" font-size="14" lengthAdjust="spacing" textLength="63" x="545.5" y="333.3613">int Puntos</text><line style="stroke:#181818;stroke-width:0.5;" x1="526.5" x2="630.5" y1="340.4375" y2="340.4375"/></g><!--link User to Achievement--><g id="link_User_Achievement"><path codeLine="41" d="M279.43,122.17 C259.75,138.19 237.6,156.31 217.5,173 C195.38,191.37 175.9602,207.6942 154.3702,225.9642 " fill="none" id="User-to-Achievement" style="stroke:#181818;stroke-width:1.0;"/><polygon fill="#181818" points="149.79,229.84,159.2441,227.0797,153.6068,226.6101,154.0763,220.9728,149.79,229.84" style="stroke:#181818;stroke-width:1.0;"/><text fill="#000000" font-family="sans-serif" font-size="13" lengthAdjust="spacing" textLength="66" x="218.5" y="187.4951">desbloquea</text><text fill="#000000" font-family="sans-serif" font-size="13" lengthAdjust="spacing" textLength="7" x="264.6695" y="124.7033">1</text><text fill="#000000" font-family="sans-serif" font-size="13" lengthAdjust="spacing" textLength="5" x="152.8082" y="219.1448">*</text></g><!--link User to Proyecto--><g id="link_User_Proyecto"><path codeLine="42" d="M363.08,143.08 C372.93,167.95 381.8899,190.5519 391.7399,215.4119 " fill="none" id="User-to-Proyecto" style="stroke:#181818;stroke-width:1.0;"/><polygon fill="#181818" points="393.95,220.99,394.3535,211.1494,392.1082,216.3416,386.916,214.0963,393.95,220.99" style="stroke:#181818;stroke-width:1.0;"/><text fill="#000000" font-family="sans-serif" font-size="13" lengthAdjust="spacing" textLength="41" x="382.5" y="187.4951">publica</text><text fill="#000000" font-family="sans-serif" font-size="13" lengthAdjust="spacing" textLength="7" x="358.4601" y="164.4366">1</text><text fill="#000000" font-family="sans-serif" font-size="13" lengthAdjust="spacing" textLength="5" x="385.7727" y="210.1882">*</text></g><!--link User to Progreso--><g id="link_User_Progreso"><path codeLine="43" d="M393.76,123.26 C427.28,151.25 470.22,187.65 507.5,221 C513.31,226.2 514.918,227.613 520.878,233.133 " fill="none" id="User-to-Progreso" style="stroke:#181818;stroke-width:1.0;"/><polygon fill="#181818" points="525.28,237.21,521.395,228.1598,521.6117,233.8125,515.9589,234.0291,525.28,237.21" style="stroke:#181818;stroke-width:1.0;"/><text fill="#000000" font-family="sans-serif" font-size="13" lengthAdjust="spacing" textLength="28" x="472.5" y="187.4951">tiene</text><text fill="#000000" font-family="sans-serif" font-size="13" lengthAdjust="spacing" textLength="7" x="401.5449" y="125.9329">1</text><text fill="#000000" font-family="sans-serif" font-size="13" lengthAdjust="spacing" textLength="7" x="510.6582" y="226.6651">1</text></g><!--link User to Editor--><g id="link_User_Editor"><path codeLine="44" d="M310.24,143.08 C299.31,170.98 288.9492,197.4736 278.4192,224.3436 " fill="none" id="User-to-Editor" style="stroke:#181818;stroke-width:1.0;"/><polygon fill="#181818" points="276.23,229.93,283.2381,223.01,278.0543,225.2747,275.7896,220.091,276.23,229.93" style="stroke:#181818;stroke-width:1.0;"/><text fill="#000000" font-family="sans-serif" font-size="13" lengthAdjust="spacing" textLength="21" x="298.5" y="187.4951">usa</text><text fill="#000000" font-family="sans-serif" font-size="13" lengthAdjust="spacing" textLength="7" x="300.171" y="164.4366">1</text><text fill="#000000" font-family="sans-serif" font-size="13" lengthAdjust="spacing" textLength="5" x="273.6955" y="219.2457">*</text></g><!--SRC=[ZL51QiCm4Bpx5OilWPOSSlMX4E8U2Y6KK3z0bhVk5aMRQYL3ANrLdz2FLGgEOzUKvgHbj9ePpIoWn6UofEdxoqA3e8qIb2mT0fMWWuyCu9QiXuSoJU8TsHPsVAWTZe0DEuUSW9hPm5fxwlZyzD5nwr0u-ynwwhL-8UpmWF7sIeKIHJiwQc8xo4IiDlmMK3KZylk6FC-SfwcIe1pnH6Z33RKy0hPesw1UyK8O_R-ZzdmjvHFvOFXlxprQxRSJZLD6_seaO4STcY7TO3rBObh07erAAYWGetL3eQSgyrKEo-KTv3Vvf80YDd_ESRuvVBw0OwWDwTyxg_nYlW1FQ77EqdTIG12L_G00]--></g></svg>